<?xml version="1.0" standalone="no"?>
<!DOCTYPE svg PUBLIC "-//W3C//DTD SVG 20010904//EN"
 "http://www.w3.org/TR/2001/REC-SVG-20010904/DTD/svg10.dtd">
<svg version="1.0" xmlns="http://www.w3.org/2000/svg"
 width="300.000000pt" height="300.000000pt" viewBox="0 0 300.000000 300.000000"
 preserveAspectRatio="xMidYMid meet">
<metadata>
Created by potrace 1.10, written by Peter Selinger 2001-2011
</metadata>
<g transform="translate(0.000000,300.000000) scale(0.100000,-0.100000)"
fill="#000000" stroke="none">
<path d="M1322 2990 c-33 -14 -42 -49 -42 -166 0 -57 -4 -104 -9 -104 -16 0
-20 -45 -6 -67 33 -49 7 -105 -114 -243 -108 -123 -158 -216 -167 -309 l-7
-61 64 0 c119 0 244 -42 356 -118 32 -22 126 -107 208 -189 158 -158 211 -196
348 -247 l68 -26 -3 348 -3 347 -37 75 c-24 48 -70 112 -129 180 -121 138
-147 194 -114 243 14 22 10 67 -6 67 -5 0 -9 47 -9 104 0 120 -9 152 -46 167
-41 15 -48 7 -22 -26 20 -25 24 -44 29 -140 3 -60 9 -118 13 -128 5 -10 3 -30
-4 -48 -25 -59 8 -125 144 -283 42 -49 91 -119 109 -155 l32 -66 3 -302 c4
-342 7 -329 -72 -294 -87 38 -161 97 -306 242 -156 157 -223 204 -359 253 -40
14 -103 30 -140 34 -66 7 -66 7 -69 40 -5 53 46 146 142 257 48 55 100 128
118 162 29 59 30 65 18 107 -9 32 -9 49 -1 64 6 11 11 65 11 119 0 90 2 102
25 133 14 19 25 35 25 37 0 6 -25 2 -48 -7z"/>
<path d="M983 1593 l3 -338 43 -124 c67 -197 71 -324 14 -484 -104 -293 -98
-270 -85 -349 30 -172 122 -281 242 -288 79 -5 99 0 135 31 l36 32 25 -24 c20
-19 38 -24 92 -27 59 -3 71 -1 105 22 l39 27 34 -31 c34 -30 55 -34 134 -30
120 7 212 116 242 288 13 79 19 55 -86 350 -55 155 -52 284 13 482 22 69 43
151 47 183 l7 57 -74 0 c-123 0 -281 52 -391 128 -24 16 -77 65 -118 108 -136
142 -154 159 -211 202 -52 39 -214 122 -239 122 -8 0 -10 -85 -7 -337z m110
251 c92 -47 170 -109 271 -219 55 -58 127 -126 162 -151 110 -79 281 -144 376
-144 51 0 68 -9 68 -35 0 -12 -18 -81 -40 -153 -81 -264 -76 -337 50 -677 18
-49 21 -75 18 -140 -7 -136 -59 -219 -171 -276 -63 -33 -65 -32 -141 23 -46
33 -55 34 -106 8 -22 -11 -58 -20 -80 -20 -22 0 -58 9 -80 20 -51 26 -60 25
-106 -8 -75 -55 -78 -55 -136 -26 -101 50 -148 113 -173 233 -18 83 -12 118
42 261 51 136 59 164 72 251 13 96 -2 199 -50 346 l-43 128 -4 288 c-3 270 -1
317 13 317 3 0 29 -12 58 -26z"/>
</g>
</svg>
